<?xml version="1.0" encoding="UTF-8"?><svg id="Layer_2" xmlns="http://www.w3.org/2000/svg" viewBox="0 0 37.7 32.31"><defs><style>.cls-1{fill:#fff;}</style></defs><g id="_イヤー_1"><g><path class="cls-1" d="M2.69,21.54v8.08c0,1.49,1.2,2.69,2.69,2.69H13.46v-10.77H2.69Z"/><path class="cls-1" d="M24.23,32.31h8.08c1.49,0,2.69-1.2,2.69-2.69v-8.08h-10.77v10.77Z"/><path class="cls-1" d="M2.69,10.77c-1.49,0-2.69,1.2-2.69,2.69v2.69c0,1.49,1.2,2.69,2.69,2.69H13.46V10.77H2.69Z"/><path class="cls-1" d="M35,10.77h-10.77v8.08h10.77c1.49,0,2.69-1.2,2.69-2.69v-2.69c0-1.49-1.2-2.69-2.69-2.69Z"/><polygon class="cls-1" points="16.16 10.77 16.16 13.46 16.16 18.85 16.16 21.54 16.16 32.31 21.54 32.31 21.54 21.54 21.54 18.85 21.54 13.46 21.54 10.77 16.16 10.77"/><ellipse class="cls-1" cx="18.85" cy="5.39" rx="3.59" ry="2.69"/><path class="cls-1" d="M34.15,5.52l-1.84-5.52-8.23,3.29c.35,.63,.56,1.34,.56,2.09,0,1-.35,1.92-.94,2.69h8.61c1.49,0,2.31-1.14,1.84-2.56Z"/><path class="cls-1" d="M13.62,3.29L5.39,0l-1.84,5.52c-.47,1.41,.35,2.56,1.84,2.56H14c-.59-.77-.94-1.69-.94-2.69,0-.76,.21-1.46,.56-2.09Z"/></g></g></svg>