<svg xmlns="http://www.w3.org/2000/svg" width="88.916" height="111.631" viewBox="0 0 88.916 111.631">
  <g id="Group_29" data-name="Group 29" transform="translate(-1001.932 -2305.067)">
    <path id="Path_36" data-name="Path 36" d="M1047.3,2416.652l43.5-43.5c.006-.306.046-.6.046-.913a44.458,44.458,0,1,0-44.458,44.458C1046.7,2416.7,1047,2416.658,1047.3,2416.652Z"/>
    <text id="_02" data-name="02" transform="translate(1046.437 2389.323)" fill="#fff" font-size="48.63" font-family="Roboto-Bold, Roboto" font-weight="700" letter-spacing="-0.019em"><tspan x="-27.439" y="0">02</tspan></text>
    <g id="Group_28" data-name="Group 28">
      <g id="Group_27" data-name="Group 27">
        <g id="Group_26" data-name="Group 26">
          <path id="Path_37" data-name="Path 37" d="M1014.632,2315l.647,1.25a4.679,4.679,0,0,1,2.717-3.076,3.626,3.626,0,0,1,4.144.318,4.8,4.8,0,0,1,.868-2.033,4.861,4.861,0,0,1,1.935-1.523q3.781-1.763,5.711,2.213l3.589,7.7-1.966.916-3.534-7.584a2.911,2.911,0,0,0-1.422-1.581,2.738,2.738,0,0,0-2.175.27,2.872,2.872,0,0,0-1.511,1.5,2.922,2.922,0,0,0-.021,2.149l3.554,7.626-1.976.921-3.508-7.531q-1.17-2.507-3.622-1.363a2.9,2.9,0,0,0-1.878,2.879l3.91,8.391-1.965.916-5.356-11.493Z"/>
          <path id="Path_38" data-name="Path 38" d="M1042.707,2319.633a5.544,5.544,0,0,1-4.311-1.373,6.29,6.29,0,0,1-1.953-4.4l-.029-.4a7.61,7.61,0,0,1,.465-3.413,5.625,5.625,0,0,1,1.836-2.466,5.078,5.078,0,0,1,2.736-1.046,4.748,4.748,0,0,1,3.955,1.336,7.047,7.047,0,0,1,1.717,4.548l.068.9-8.565.645a4.505,4.505,0,0,0,1.319,2.939,3.445,3.445,0,0,0,2.745.951,3.785,3.785,0,0,0,1.906-.614,4.888,4.888,0,0,0,1.3-1.343l1.4.929A5.323,5.323,0,0,1,1042.707,2319.633Zm-1.122-11.315a2.9,2.9,0,0,0-2.126,1.118,4.645,4.645,0,0,0-.9,2.753l6.334-.477-.012-.163a4.138,4.138,0,0,0-1.081-2.487A2.722,2.722,0,0,0,1041.585,2308.318Z"/>
          <path id="Path_39" data-name="Path 39" d="M1058.065,2309.809a6.453,6.453,0,0,0-1.041-.244,2.856,2.856,0,0,0-3.137,1.353l-1.373,8.9-2.143-.331,1.935-12.531,2.085.322-.19,1.453a3.377,3.377,0,0,1,3.248-1.218,2.2,2.2,0,0,1,.924.309Z"/>
          <path id="Path_40" data-name="Path 40" d="M1061.06,2321.926l-2.061-.675,3.943-12.051,2.061.675Zm2.761-15.977a1.3,1.3,0,0,1,.584-.746,1.213,1.213,0,0,1,1.021-.048,1.23,1.23,0,0,1,.8.644,1.285,1.285,0,0,1,.035.949,1.284,1.284,0,1,1-2.44-.8Z"/>
          <path id="Path_41" data-name="Path 41" d="M1074.631,2310.741l-1.409,2.728,2.1,1.086-.769,1.489-2.1-1.086-3.613,6.995a1.748,1.748,0,0,0-.244,1.161,1.33,1.33,0,0,0,.783.834,5.2,5.2,0,0,0,.98.348l-.8,1.553a6.336,6.336,0,0,1-1.586-.557,2.7,2.7,0,0,1-1.543-1.787,3.77,3.77,0,0,1,.489-2.556l3.608-6.986-2.05-1.06.769-1.489,2.051,1.06,1.409-2.728Z"/>
        </g>
      </g>
    </g>
  </g>
</svg>
