<?xml version="1.0" encoding="UTF-8"?>
<svg xmlns="http://www.w3.org/2000/svg" xmlns:xlink="http://www.w3.org/1999/xlink" width="89px" height="112px" viewBox="0 0 89 112" version="1.1">
<g id="surface1">
<path style=" stroke:none;fill-rule:nonzero;fill:rgb(0%,0%,0%);fill-opacity:1;" d="M 45.410156 111.816406 L 88.949219 68.277344 C 88.949219 67.964844 89 67.675781 89 67.363281 C 89 42.792969 69.082031 22.863281 44.5 22.863281 C 19.917969 22.863281 0 42.792969 0 67.363281 C 0 91.9375 19.917969 111.863281 44.5 111.863281 C 44.808594 111.863281 45.109375 111.824219 45.410156 111.816406 Z M 45.410156 111.816406 "/>
<path style=" stroke:none;fill-rule:nonzero;fill:rgb(100%,100%,100%);fill-opacity:1;" d="M 42.726562 70.15625 C 42.726562 74.941406 41.738281 78.605469 39.753906 81.136719 C 37.773438 83.667969 34.871094 84.941406 31.058594 84.941406 C 27.246094 84.941406 24.402344 83.699219 22.410156 81.207031 C 20.417969 78.714844 19.386719 75.152344 19.347656 70.507812 L 19.347656 64.140625 C 19.347656 59.308594 20.347656 55.644531 22.351562 53.140625 C 24.351562 50.640625 27.246094 49.390625 31.007812 49.390625 C 34.769531 49.390625 37.664062 50.628906 39.65625 53.113281 C 41.648438 55.59375 42.679688 59.15625 42.71875 63.792969 L 42.71875 70.15625 Z M 35.863281 63.152344 C 35.863281 60.277344 35.472656 58.1875 34.679688 56.886719 C 33.902344 55.574219 32.667969 54.925781 31.007812 54.925781 C 29.347656 54.925781 28.195312 55.542969 27.433594 56.796875 C 26.664062 58.035156 26.253906 59.988281 26.214844 62.632812 L 26.214844 71.046875 C 26.214844 73.871094 26.59375 75.972656 27.363281 77.34375 C 28.136719 78.714844 29.367188 79.40625 31.058594 79.40625 C 32.75 79.40625 33.949219 78.746094 34.691406 77.433594 C 35.433594 76.125 35.820312 74.101562 35.851562 71.390625 L 35.851562 63.160156 Z M 35.863281 63.152344 "/>
<path style=" stroke:none;fill-rule:nonzero;fill:rgb(100%,100%,100%);fill-opacity:1;" d="M 70.152344 84.46875 L 46.433594 84.46875 L 46.433594 79.765625 L 57.621094 67.835938 C 59.164062 66.152344 60.292969 64.691406 61.035156 63.441406 C 61.777344 62.191406 62.136719 61 62.136719 59.878906 C 62.136719 58.335938 61.746094 57.136719 60.976562 56.253906 C 60.195312 55.375 59.09375 54.933594 57.652344 54.933594 C 56.101562 54.933594 54.878906 55.464844 53.980469 56.535156 C 53.085938 57.605469 52.636719 59.007812 52.636719 60.75 L 45.742188 60.75 C 45.742188 58.648438 46.242188 56.714844 47.253906 54.972656 C 48.253906 53.234375 49.683594 51.859375 51.515625 50.871094 C 53.359375 49.878906 55.441406 49.390625 57.773438 49.390625 C 61.335938 49.390625 64.109375 50.238281 66.078125 51.953125 C 68.050781 53.664062 69.042969 56.074219 69.042969 59.199219 C 69.042969 60.910156 68.601562 62.652344 67.710938 64.421875 C 66.820312 66.195312 65.296875 68.265625 63.148438 70.628906 L 55.28125 78.925781 L 70.152344 78.925781 Z M 70.152344 84.46875 "/>
<path style=" stroke:none;fill-rule:nonzero;fill:rgb(0%,0%,0%);fill-opacity:1;" d="M 12.710938 10.074219 L 13.363281 11.324219 C 13.542969 10.675781 13.851562 10.082031 14.292969 9.5625 C 14.734375 9.042969 15.332031 8.601562 16.085938 8.253906 C 16.824219 7.902344 17.554688 7.742188 18.265625 7.773438 C 18.976562 7.800781 19.628906 8.0625 20.238281 8.574219 C 20.359375 7.839844 20.648438 7.160156 21.109375 6.539062 C 21.558594 5.910156 22.210938 5.410156 23.050781 5.019531 C 23.671875 4.730469 24.25 4.558594 24.800781 4.5 C 25.351562 4.4375 25.875 4.5 26.355469 4.6875 C 26.84375 4.878906 27.292969 5.1875 27.703125 5.640625 C 28.117188 6.089844 28.496094 6.671875 28.835938 7.390625 L 32.359375 14.949219 L 30.386719 15.867188 L 26.863281 8.300781 C 26.644531 7.820312 26.394531 7.453125 26.125 7.179688 C 25.863281 6.921875 25.574219 6.742188 25.273438 6.652344 C 24.972656 6.5625 24.652344 6.550781 24.3125 6.609375 C 23.972656 6.679688 23.621094 6.800781 23.25 6.972656 C 22.851562 7.160156 22.519531 7.390625 22.269531 7.660156 C 22.019531 7.933594 21.828125 8.230469 21.710938 8.550781 C 21.589844 8.871094 21.53125 9.214844 21.539062 9.5625 C 21.539062 9.914062 21.609375 10.273438 21.730469 10.625 L 25.28125 18.261719 L 23.300781 19.183594 L 19.777344 11.625 C 19.566406 11.175781 19.335938 10.824219 19.066406 10.5625 C 18.796875 10.304688 18.515625 10.125 18.214844 10.023438 C 17.917969 9.921875 17.585938 9.902344 17.246094 9.945312 C 16.90625 9.992188 16.542969 10.105469 16.164062 10.273438 C 15.464844 10.605469 14.972656 11.015625 14.683594 11.515625 C 14.402344 12.015625 14.261719 12.566406 14.28125 13.15625 L 18.195312 21.554688 L 16.234375 22.476562 L 10.871094 10.972656 L 12.730469 10.105469 Z M 12.710938 10.074219 "/>
<path style=" stroke:none;fill-rule:nonzero;fill:rgb(0%,0%,0%);fill-opacity:1;" d="M 40.816406 14.71875 C 39.9375 14.789062 39.125 14.6875 38.394531 14.4375 C 37.652344 14.1875 37.011719 13.808594 36.472656 13.304688 C 35.933594 12.804688 35.480469 12.1875 35.160156 11.453125 C 34.832031 10.722656 34.632812 9.921875 34.570312 9.03125 L 34.53125 8.542969 C 34.449219 7.511719 34.53125 6.582031 34.78125 5.75 C 35.03125 4.917969 35.390625 4.199219 35.863281 3.609375 C 36.332031 3.015625 36.894531 2.546875 37.535156 2.207031 C 38.175781 1.867188 38.855469 1.667969 39.574219 1.617188 C 40.476562 1.546875 41.265625 1.644531 41.949219 1.917969 C 42.628906 2.1875 43.199219 2.578125 43.667969 3.097656 C 44.140625 3.617188 44.5 4.25 44.761719 4.988281 C 45.019531 5.730469 45.179688 6.539062 45.25 7.429688 L 45.320312 8.402344 L 36.742188 9.054688 C 36.804688 9.632812 36.941406 10.171875 37.152344 10.664062 C 37.363281 11.15625 37.652344 11.574219 38.003906 11.925781 C 38.355469 12.277344 38.765625 12.546875 39.246094 12.726562 C 39.714844 12.90625 40.246094 12.976562 40.816406 12.9375 C 41.578125 12.875 42.21875 12.675781 42.726562 12.324219 C 43.238281 11.976562 43.667969 11.523438 44.03125 10.984375 L 45.429688 11.914062 C 45.25 12.246094 45.03125 12.566406 44.761719 12.875 C 44.488281 13.1875 44.179688 13.476562 43.808594 13.738281 C 43.4375 13.996094 43.007812 14.21875 42.519531 14.386719 C 42.027344 14.558594 41.46875 14.667969 40.835938 14.71875 Z M 39.695312 3.398438 C 39.253906 3.429688 38.863281 3.539062 38.503906 3.726562 C 38.152344 3.917969 37.84375 4.167969 37.574219 4.5 C 37.304688 4.828125 37.09375 5.21875 36.941406 5.691406 C 36.78125 6.160156 36.691406 6.679688 36.664062 7.269531 L 43 6.789062 L 43 6.628906 C 42.929688 6.210938 42.828125 5.800781 42.6875 5.390625 C 42.546875 4.988281 42.339844 4.628906 42.078125 4.320312 C 41.816406 4.007812 41.488281 3.769531 41.097656 3.585938 C 40.707031 3.417969 40.234375 3.347656 39.6875 3.386719 Z M 39.695312 3.398438 "/>
<path style=" stroke:none;fill-rule:nonzero;fill:rgb(0%,0%,0%);fill-opacity:1;" d="M 56.179688 4.878906 C 56 4.820312 55.832031 4.769531 55.679688 4.738281 C 55.519531 4.699219 55.351562 4.667969 55.140625 4.640625 C 54.398438 4.527344 53.769531 4.589844 53.246094 4.847656 C 52.726562 5.109375 52.316406 5.480469 51.996094 6 L 50.625 14.898438 L 48.484375 14.566406 L 50.414062 2.027344 L 52.496094 2.347656 L 52.308594 3.796875 C 52.707031 3.328125 53.179688 2.988281 53.71875 2.757812 C 54.25 2.527344 54.871094 2.46875 55.558594 2.578125 C 55.710938 2.597656 55.890625 2.648438 56.082031 2.707031 C 56.28125 2.777344 56.410156 2.828125 56.480469 2.878906 L 56.171875 4.867188 Z M 56.179688 4.878906 "/>
<path style=" stroke:none;fill-rule:nonzero;fill:rgb(0%,0%,0%);fill-opacity:1;" d="M 59.183594 17.011719 L 57.121094 16.339844 L 61.066406 4.277344 L 63.125 4.949219 Z M 61.945312 1.015625 C 62.054688 0.683594 62.246094 0.433594 62.527344 0.265625 C 62.804688 0.105469 63.148438 0.0859375 63.546875 0.214844 C 63.949219 0.34375 64.21875 0.566406 64.347656 0.855469 C 64.476562 1.15625 64.488281 1.464844 64.386719 1.804688 C 64.277344 2.136719 64.085938 2.386719 63.808594 2.535156 C 63.527344 2.6875 63.1875 2.707031 62.785156 2.578125 C 62.386719 2.445312 62.117188 2.238281 61.984375 1.945312 C 61.855469 1.65625 61.84375 1.347656 61.957031 1.003906 Z M 61.945312 1.015625 "/>
<path style=" stroke:none;fill-rule:nonzero;fill:rgb(0%,0%,0%);fill-opacity:1;" d="M 72.765625 5.808594 L 71.355469 8.542969 L 73.457031 9.632812 L 72.683594 11.125 L 70.582031 10.035156 L 66.96875 17.03125 C 66.820312 17.320312 66.730469 17.570312 66.710938 17.789062 C 66.691406 18 66.710938 18.191406 66.769531 18.339844 C 66.828125 18.5 66.929688 18.632812 67.070312 18.742188 C 67.199219 18.851562 67.351562 18.941406 67.511719 19.03125 C 67.671875 19.113281 67.851562 19.183594 68.042969 19.242188 C 68.230469 19.300781 68.382812 19.34375 68.492188 19.371094 L 67.679688 20.933594 C 67.511719 20.894531 67.289062 20.84375 67.019531 20.761719 C 66.75 20.683594 66.441406 20.554688 66.097656 20.382812 C 65.75 20.203125 65.4375 19.972656 65.167969 19.710938 C 64.898438 19.453125 64.71875 19.140625 64.597656 18.78125 C 64.488281 18.421875 64.457031 18.011719 64.519531 17.558594 C 64.578125 17.101562 64.757812 16.589844 65.046875 16.027344 L 68.652344 9.042969 L 66.601562 7.980469 L 67.371094 6.492188 L 69.421875 7.550781 L 70.832031 4.820312 Z M 72.765625 5.808594 "/>
</g>
</svg>
