<?xml version="1.0" encoding="UTF-8"?>
<svg xmlns="http://www.w3.org/2000/svg" xmlns:xlink="http://www.w3.org/1999/xlink" width="89px" height="112px" viewBox="0 0 89 112" version="1.1">
<g id="surface1">
<path style=" stroke:none;fill-rule:nonzero;fill:rgb(0%,0%,0%);fill-opacity:1;" d="M 45.410156 111.816406 L 88.949219 68.277344 C 88.949219 67.964844 89 67.675781 89 67.363281 C 89 42.792969 69.082031 22.863281 44.5 22.863281 C 19.917969 22.863281 0 42.792969 0 67.363281 C 0 91.9375 19.917969 111.863281 44.5 111.863281 C 44.808594 111.863281 45.109375 111.824219 45.410156 111.816406 Z M 45.410156 111.816406 "/>
<path style=" stroke:none;fill-rule:nonzero;fill:rgb(100%,100%,100%);fill-opacity:1;" d="M 42.726562 70.15625 C 42.726562 74.941406 41.738281 78.605469 39.753906 81.136719 C 37.773438 83.667969 34.871094 84.941406 31.058594 84.941406 C 27.246094 84.941406 24.402344 83.699219 22.410156 81.207031 C 20.417969 78.714844 19.386719 75.152344 19.347656 70.507812 L 19.347656 64.140625 C 19.347656 59.308594 20.347656 55.644531 22.351562 53.140625 C 24.351562 50.640625 27.246094 49.390625 31.007812 49.390625 C 34.769531 49.390625 37.664062 50.628906 39.65625 53.113281 C 41.648438 55.59375 42.679688 59.15625 42.71875 63.792969 L 42.71875 70.15625 Z M 35.863281 63.152344 C 35.863281 60.277344 35.472656 58.1875 34.679688 56.886719 C 33.902344 55.574219 32.667969 54.925781 31.007812 54.925781 C 29.347656 54.925781 28.195312 55.542969 27.433594 56.796875 C 26.664062 58.035156 26.253906 59.988281 26.214844 62.632812 L 26.214844 71.046875 C 26.214844 73.871094 26.59375 75.972656 27.363281 77.34375 C 28.136719 78.714844 29.367188 79.40625 31.058594 79.40625 C 32.75 79.40625 33.949219 78.746094 34.691406 77.433594 C 35.433594 76.125 35.820312 74.101562 35.851562 71.390625 L 35.851562 63.160156 Z M 35.863281 63.152344 "/>
<path style=" stroke:none;fill-rule:nonzero;fill:rgb(100%,100%,100%);fill-opacity:1;" d="M 53.429688 64.121094 L 57.089844 64.121094 C 58.832031 64.121094 60.125 63.683594 60.964844 62.8125 C 61.804688 61.941406 62.226562 60.777344 62.226562 59.339844 C 62.226562 57.898438 61.804688 56.855469 60.976562 56.085938 C 60.144531 55.304688 58.992188 54.925781 57.542969 54.925781 C 56.230469 54.925781 55.128906 55.285156 54.238281 56.003906 C 53.347656 56.726562 52.90625 57.667969 52.90625 58.816406 L 46.042969 58.816406 C 46.042969 57.015625 46.53125 55.394531 47.503906 53.953125 C 48.472656 52.511719 49.835938 51.402344 51.585938 50.589844 C 53.339844 49.78125 55.269531 49.378906 57.371094 49.378906 C 61.035156 49.378906 63.898438 50.261719 65.980469 52 C 68.050781 53.753906 69.09375 56.164062 69.09375 59.238281 C 69.09375 60.820312 68.613281 62.28125 67.640625 63.613281 C 66.671875 64.941406 65.410156 65.964844 63.835938 66.675781 C 65.789062 67.375 67.242188 68.417969 68.203125 69.808594 C 69.164062 71.199219 69.644531 72.851562 69.644531 74.75 C 69.644531 77.824219 68.523438 80.285156 66.28125 82.136719 C 64.039062 83.988281 61.074219 84.921875 57.382812 84.921875 C 53.929688 84.921875 51.105469 84.011719 48.914062 82.1875 C 46.722656 80.367188 45.621094 77.953125 45.621094 74.960938 L 52.488281 74.960938 C 52.488281 76.261719 52.976562 77.324219 53.949219 78.144531 C 54.917969 78.964844 56.121094 79.375 57.550781 79.375 C 59.183594 79.375 60.464844 78.945312 61.386719 78.085938 C 62.304688 77.222656 62.777344 76.074219 62.777344 74.652344 C 62.777344 71.199219 60.875 69.46875 57.070312 69.46875 L 53.4375 69.46875 L 53.4375 64.09375 Z M 53.429688 64.121094 "/>
<path style=" stroke:none;fill-rule:nonzero;fill:rgb(0%,0%,0%);fill-opacity:1;" d="M 12.710938 10.074219 L 13.363281 11.324219 C 13.542969 10.675781 13.851562 10.082031 14.292969 9.554688 C 14.734375 9.03125 15.332031 8.59375 16.085938 8.242188 C 16.824219 7.890625 17.554688 7.730469 18.265625 7.761719 C 18.976562 7.792969 19.628906 8.050781 20.238281 8.5625 C 20.359375 7.832031 20.648438 7.152344 21.109375 6.53125 C 21.558594 5.898438 22.210938 5.398438 23.050781 5.007812 C 23.671875 4.71875 24.25 4.546875 24.800781 4.488281 C 25.351562 4.429688 25.875 4.488281 26.355469 4.679688 C 26.84375 4.867188 27.292969 5.179688 27.703125 5.628906 C 28.117188 6.082031 28.496094 6.660156 28.835938 7.382812 L 32.359375 14.9375 L 30.386719 15.859375 L 26.863281 8.292969 C 26.644531 7.8125 26.394531 7.441406 26.132812 7.171875 C 25.863281 6.910156 25.582031 6.730469 25.28125 6.640625 C 24.984375 6.550781 24.664062 6.539062 24.320312 6.601562 C 23.980469 6.671875 23.632812 6.789062 23.261719 6.960938 C 22.859375 7.152344 22.53125 7.382812 22.28125 7.652344 C 22.03125 7.921875 21.839844 8.222656 21.71875 8.542969 C 21.597656 8.863281 21.539062 9.203125 21.550781 9.554688 C 21.550781 9.902344 21.621094 10.265625 21.738281 10.613281 L 25.292969 18.25 L 23.3125 19.171875 L 19.789062 11.613281 C 19.578125 11.164062 19.347656 10.8125 19.078125 10.554688 C 18.808594 10.292969 18.527344 10.113281 18.226562 10.011719 C 17.917969 9.914062 17.597656 9.894531 17.253906 9.933594 C 16.914062 9.984375 16.554688 10.09375 16.175781 10.265625 C 15.472656 10.59375 14.984375 11.003906 14.691406 11.503906 C 14.414062 12.003906 14.273438 12.554688 14.292969 13.144531 L 18.207031 21.542969 L 16.246094 22.464844 L 10.878906 10.964844 L 12.742188 10.09375 Z M 12.710938 10.074219 "/>
<path style=" stroke:none;fill-rule:nonzero;fill:rgb(0%,0%,0%);fill-opacity:1;" d="M 40.808594 14.71875 C 39.925781 14.789062 39.113281 14.6875 38.382812 14.4375 C 37.644531 14.1875 37.003906 13.808594 36.460938 13.304688 C 35.914062 12.804688 35.472656 12.1875 35.152344 11.453125 C 34.820312 10.722656 34.621094 9.921875 34.5625 9.03125 L 34.519531 8.542969 C 34.441406 7.511719 34.519531 6.582031 34.769531 5.75 C 35.019531 4.917969 35.382812 4.199219 35.851562 3.609375 C 36.324219 3.015625 36.882812 2.546875 37.523438 2.207031 C 38.164062 1.867188 38.84375 1.667969 39.566406 1.617188 C 40.464844 1.546875 41.257812 1.644531 41.9375 1.917969 C 42.617188 2.1875 43.1875 2.578125 43.660156 3.097656 C 44.128906 3.617188 44.488281 4.25 44.75 4.988281 C 45.011719 5.730469 45.171875 6.539062 45.242188 7.429688 L 45.3125 8.402344 L 36.734375 9.054688 C 36.792969 9.632812 36.933594 10.171875 37.144531 10.664062 C 37.355469 11.15625 37.644531 11.574219 37.996094 11.925781 C 38.34375 12.277344 38.753906 12.546875 39.234375 12.726562 C 39.707031 12.90625 40.234375 12.976562 40.808594 12.9375 C 41.566406 12.875 42.207031 12.675781 42.707031 12.324219 C 43.21875 11.976562 43.648438 11.523438 44.007812 10.984375 L 45.410156 11.914062 C 45.230469 12.246094 45.011719 12.566406 44.738281 12.875 C 44.46875 13.1875 44.160156 13.476562 43.789062 13.738281 C 43.417969 13.996094 42.988281 14.21875 42.507812 14.386719 C 42.019531 14.558594 41.457031 14.667969 40.828125 14.71875 Z M 39.6875 3.398438 C 39.246094 3.429688 38.855469 3.539062 38.496094 3.726562 C 38.144531 3.917969 37.835938 4.167969 37.5625 4.5 C 37.292969 4.828125 37.082031 5.21875 36.933594 5.691406 C 36.773438 6.160156 36.683594 6.679688 36.664062 7.269531 L 43 6.789062 L 43 6.628906 C 42.929688 6.210938 42.828125 5.800781 42.6875 5.398438 C 42.546875 5 42.339844 4.640625 42.078125 4.328125 C 41.816406 4.019531 41.488281 3.777344 41.097656 3.597656 C 40.707031 3.429688 40.234375 3.359375 39.6875 3.398438 Z M 39.6875 3.398438 "/>
<path style=" stroke:none;fill-rule:nonzero;fill:rgb(0%,0%,0%);fill-opacity:1;" d="M 56.179688 4.878906 C 56 4.820312 55.832031 4.769531 55.671875 4.738281 C 55.511719 4.699219 55.339844 4.667969 55.128906 4.640625 C 54.390625 4.527344 53.757812 4.589844 53.238281 4.847656 C 52.71875 5.097656 52.308594 5.480469 51.988281 6 L 50.617188 14.90625 L 48.472656 14.578125 L 50.40625 2.035156 L 52.488281 2.355469 L 52.296875 3.808594 C 52.699219 3.335938 53.167969 2.996094 53.707031 2.765625 C 54.238281 2.535156 54.859375 2.476562 55.550781 2.585938 C 55.699219 2.605469 55.878906 2.65625 56.070312 2.71875 C 56.261719 2.777344 56.402344 2.835938 56.472656 2.886719 L 56.160156 4.878906 Z M 56.179688 4.878906 "/>
<path style=" stroke:none;fill-rule:nonzero;fill:rgb(0%,0%,0%);fill-opacity:1;" d="M 59.183594 17.011719 L 57.121094 16.339844 L 61.066406 4.277344 L 63.125 4.949219 Z M 61.945312 1.015625 C 62.054688 0.683594 62.246094 0.433594 62.527344 0.265625 C 62.804688 0.105469 63.148438 0.0859375 63.546875 0.214844 C 63.949219 0.34375 64.21875 0.566406 64.347656 0.855469 C 64.476562 1.15625 64.488281 1.464844 64.378906 1.804688 C 64.269531 2.136719 64.078125 2.386719 63.796875 2.535156 C 63.515625 2.6875 63.175781 2.707031 62.777344 2.578125 C 62.375 2.445312 62.105469 2.238281 61.976562 1.945312 C 61.84375 1.65625 61.835938 1.347656 61.945312 1.003906 Z M 61.945312 1.015625 "/>
<path style=" stroke:none;fill-rule:nonzero;fill:rgb(0%,0%,0%);fill-opacity:1;" d="M 72.765625 5.808594 L 71.355469 8.542969 L 73.457031 9.632812 L 72.683594 11.125 L 70.582031 10.035156 L 66.96875 17.03125 C 66.820312 17.320312 66.730469 17.570312 66.710938 17.789062 C 66.691406 18.011719 66.710938 18.191406 66.769531 18.339844 C 66.828125 18.5 66.929688 18.632812 67.070312 18.742188 C 67.199219 18.851562 67.351562 18.941406 67.511719 19.03125 C 67.671875 19.113281 67.851562 19.183594 68.042969 19.242188 C 68.230469 19.300781 68.382812 19.34375 68.492188 19.371094 L 67.679688 20.933594 C 67.511719 20.894531 67.28125 20.84375 67.019531 20.761719 C 66.75 20.683594 66.441406 20.554688 66.097656 20.382812 C 65.75 20.203125 65.4375 19.972656 65.167969 19.710938 C 64.910156 19.453125 64.71875 19.140625 64.597656 18.78125 C 64.476562 18.421875 64.457031 18.011719 64.519531 17.558594 C 64.578125 17.101562 64.757812 16.589844 65.046875 16.027344 L 68.652344 9.042969 L 66.601562 7.980469 L 67.371094 6.492188 L 69.421875 7.550781 L 70.832031 4.820312 L 72.765625 5.820312 Z M 72.765625 5.808594 "/>
</g>
</svg>
