<?xml version="1.0" encoding="UTF-8"?><svg id="Layer_2" xmlns="http://www.w3.org/2000/svg" viewBox="0 0 205.93 199"><defs><style>.cls-1{fill:#fff;}.cls-2{fill:#7a89a8;}</style></defs><g id="_イヤー_1"><g><circle class="cls-2" cx="106.43" cy="99.5" r="99.5"/><g><path class="cls-1" d="M88.46,58.14l.32,3.08c-4.37,1.16-9.02,2.31-12.04,3.05-.03,.29-.26,.48-.51,.54l-1.54-3.92c2.15-.35,5.1-.96,8.28-1.61l-.87-.29c.48-1.77,1.03-4.53,1.22-6.52l4.14,1.16c-.1,.22-.38,.38-.83,.38-.29,1.41-.77,3.24-1.25,4.75l3.08-.64Zm-.53-21.14v4h-13v-4h13Zm-1,6v9h-11v-9h11Zm-7.33,9.78c.67,1.8,1.16,4.14,1.25,5.68l-3.28,.87c-.03-1.54-.45-3.95-1.06-5.78l3.08-.77Zm4.33-3.78v-3h-5v3h5Zm12.24,12.67c-.1,.13-.29,.19-.55,.22-1.38,1.38-4.3,3.15-6.77,4.08-.58-.67-1.7-1.8-2.54-2.47,2.44-.83,5.2-2.5,6.58-3.85l3.27,2.02Zm7.76-19.67v18h-14v-18h4.02c.16-.23,.42-2,.42-2h-5.44v-3h16v3h-6.52c-.19,.9-.42,1.7-.67,2h6.19Zm-4,5v-2h-7v2h7Zm0,5v-2h-7v2h7Zm0,5v-2h-7v2h7Zm2.69,8.97c-1.09-1.16-3.47-3.02-5.26-4.24l2.92-1.83c1.73,1.12,4.17,2.86,5.43,4.01l-3.08,2.05Z"/><path class="cls-1" d="M128.95,55l3.63,1.56c-.15,.21-.45,.33-.84,.3-.72,1.23-1.92,2.91-2.91,4.14h7.1v4h-27v-4h5.73c-.48-.77-1.61-2.93-2.7-4.53l2.89-1.47h-4.93v-3h10v-3h-6v-1.57c-1.52,1.12-3.13,2.18-4.77,3.08-.51-.9-1.55-2.31-2.31-3.05,5.44-2.79,10.62-7.74,13-11.75l5.06,.29c-.1,.32-.38,.61-.82,.64,3.04,4.21,8.44,8.28,13.22,10.34-.95,.96-1.83,2.28-2.53,3.44-1.61-.87-3.26-1.93-4.84-3.08v1.67h-6v3h10v3h-4.98Zm-9.02,0h-4.35c1.14,1.53,2.31,3.57,2.76,4.95l-2.43,1.05h4.02v-6Zm7.93-10c-2.41-1.96-4.53-4.08-5.97-6.07-1.35,1.96-3.37,4.08-5.75,6.07h11.72Zm-2.67,15.13c.99-1.35,2.22-3.51,2.91-5.13h-4.17v6h3.09l-1.83-.87Z"/><path class="cls-1" d="M61.72,115.39c0-22.16,8.19-37.76,24.56-37.76s23.79,16.96,23.79,37.18c0,24.08-8.96,37.86-24.27,37.86-16.95,0-24.08-16.96-24.08-37.28Zm24.28,25.61c6.55,0,9.83-9.25,9.83-26.3s-2.99-26.2-9.73-26.2c-6.16,0-10.11,8.86-10.11,26.2s3.56,26.3,9.92,26.3h.1Z"/><path class="cls-1" d="M150.93,115v23.41c0,4.16-2.02,4.63-8.16,4.63-.2-1.09-.86-2.94-1.46-3.97,1.29,.1,2.68,.1,3.67,.1,1.75,0,1.95,0,1.95-.83v-7.35h-19v12h-4v-28h27Zm-23,4v8h8v-8h-8Zm11,8h8v-8h-8v8Z"/></g><polyline class="cls-2" points="25.69 135.11 0 180.06 38.53 167.22"/></g></g></svg>