<svg xmlns="http://www.w3.org/2000/svg" width="41.602" height="34.332" viewBox="0 0 41.602 34.332">
  <g id="Group_38" data-name="Group 38" transform="translate(-924.136 -2839.368)">
    <path id="Path_52" data-name="Path 52" d="M950.933,2873.587c4.954-2.487,10.51-4.629,14.552-8.507a.882.882,0,0,0-.85-1.463c-5.377,1.574-10,5.33-14.627,8.387A.917.917,0,0,0,950.933,2873.587Z"/>
    <path id="Path_53" data-name="Path 53" d="M946.136,2864.708c5.731-7.2,12.552-14.985,15.774-23.691a.9.9,0,0,0-1.5-.872c-3.023,3.376-5.263,7.332-7.762,11.091q-4.059,6.1-8.51,11.932C943.277,2864.306,945.237,2865.836,946.136,2864.708Z"/>
    <path id="Path_54" data-name="Path 54" d="M938.78,2856q.6-2.22,1.386-4.424c.261-.732.583-1.462.808-2.2a8.759,8.759,0,0,0,.332-1.1,3.035,3.035,0,0,0,.1-1.065c-.075-.355-.66-.443-1-.159a3.924,3.924,0,0,0-.743.955,9.079,9.079,0,0,0-.529,1.069,20.67,20.67,0,0,0-.845,2.3q-.744,2.249-1.3,4.511C936.775,2856.735,938.551,2856.845,938.78,2856Z"/>
    <path id="Path_55" data-name="Path 55" d="M926.158,2854.724q.052-3.683.156-7.363c.034-1.218.135-2.464.09-3.679a24.227,24.227,0,0,0-.193-3.645c-.186-.961-1.123-.819-1.353,0a23.759,23.759,0,0,0-.447,3.564c-.145,1.223-.1,2.523-.136,3.76q-.1,3.681-.139,7.363C924.114,2856.466,926.133,2856.465,926.158,2854.724Z"/>
  </g>
</svg>
