<svg xmlns="http://www.w3.org/2000/svg" width="88.916" height="111.631" viewBox="0 0 88.916 111.631">
  <g id="Group_35" data-name="Group 35" transform="translate(-373.774 -2744.723)">
    <path id="Path_46" data-name="Path 46" d="M419.146,2856.307l43.5-43.5c.006-.307.046-.6.046-.913a44.458,44.458,0,1,0-44.458,44.458C418.54,2856.354,418.839,2856.313,419.146,2856.307Z"/>
    <text id="_03" data-name="03" transform="translate(418.279 2828.979)" fill="#fff" font-size="48.63" font-family="Roboto-Bold, Roboto" font-weight="700" letter-spacing="-0.019em"><tspan x="-27.439" y="0">03</tspan></text>
    <g id="Group_34" data-name="Group 34">
      <g id="Group_33" data-name="Group 33">
        <path id="Path_47" data-name="Path 47" d="M386.474,2754.656l.648,1.25a4.682,4.682,0,0,1,2.716-3.076,3.625,3.625,0,0,1,4.143.319,4.8,4.8,0,0,1,.869-2.034,4.859,4.859,0,0,1,1.935-1.522q3.781-1.763,5.711,2.213l3.589,7.7-1.965.915-3.535-7.584a2.907,2.907,0,0,0-1.421-1.58,2.731,2.731,0,0,0-2.176.27,2.873,2.873,0,0,0-1.511,1.5,2.921,2.921,0,0,0-.02,2.15l3.553,7.626-1.975.921-3.51-7.531q-1.167-2.507-3.622-1.363a2.9,2.9,0,0,0-1.877,2.879l3.91,8.391-1.965.916-5.356-11.494Z"/>
        <path id="Path_48" data-name="Path 48" d="M414.549,2759.289a5.541,5.541,0,0,1-4.311-1.374,6.285,6.285,0,0,1-1.952-4.4l-.03-.4a7.6,7.6,0,0,1,.465-3.414,5.627,5.627,0,0,1,1.836-2.465,5.062,5.062,0,0,1,2.736-1.046,4.751,4.751,0,0,1,3.955,1.335,7.057,7.057,0,0,1,1.717,4.549l.068.9-8.565.645a4.5,4.5,0,0,0,1.32,2.938,3.44,3.44,0,0,0,2.745.952,3.794,3.794,0,0,0,1.9-.614,4.891,4.891,0,0,0,1.3-1.343l1.4.928A5.325,5.325,0,0,1,414.549,2759.289Zm-1.122-11.315a2.893,2.893,0,0,0-2.126,1.118,4.645,4.645,0,0,0-.9,2.753l6.334-.477-.012-.164a4.135,4.135,0,0,0-1.081-2.486A2.722,2.722,0,0,0,413.427,2747.974Z"/>
        <path id="Path_49" data-name="Path 49" d="M429.908,2749.464a6.481,6.481,0,0,0-1.041-.243,2.856,2.856,0,0,0-3.138,1.353l-1.374,8.9-2.142-.331,1.934-12.532,2.085.322-.189,1.453a3.377,3.377,0,0,1,3.248-1.217,2.212,2.212,0,0,1,.924.308Z"/>
        <path id="Path_50" data-name="Path 50" d="M432.9,2761.581l-2.06-.674,3.944-12.051,2.06.674Zm2.763-15.976a1.29,1.29,0,0,1,.583-.746,1.206,1.206,0,0,1,1.021-.048,1.228,1.228,0,0,1,.8.644,1.283,1.283,0,0,1,.035.948,1.173,1.173,0,0,1-1.608.768,1.226,1.226,0,0,1-.8-.63A1.246,1.246,0,0,1,435.664,2745.6Z"/>
        <path id="Path_51" data-name="Path 51" d="M446.473,2750.4l-1.409,2.728,2.1,1.086-.769,1.489-2.1-1.087-3.613,6.995a1.756,1.756,0,0,0-.244,1.162,1.332,1.332,0,0,0,.783.834,5.343,5.343,0,0,0,.98.348l-.8,1.552a6.342,6.342,0,0,1-1.585-.556,2.7,2.7,0,0,1-1.543-1.787,3.769,3.769,0,0,1,.489-2.556l3.609-6.987-2.052-1.059.77-1.489,2.051,1.059,1.409-2.728Z"/>
      </g>
    </g>
  </g>
</svg>
