<?xml version="1.0" encoding="UTF-8"?><svg id="Layer_2" xmlns="http://www.w3.org/2000/svg" viewBox="0 0 118.72 99.54"><defs><style>.cls-1{letter-spacing:-.01em;}.cls-2,.cls-3{fill:#bababa;}.cls-3{font-family:Roboto-Bold, Roboto;font-size:21.45px;}</style></defs><g id="_イヤー_1"><g><text class="cls-3" transform="translate(0 18.35)"><tspan class="cls-1" x="0" y="0">Z</tspan><tspan x="12.78" y="0">oom</tspan></text><g><path class="cls-2" d="M41.22,52.07v.03h4.17v13.47l4.81-4.3v-10.59h-.03v-.69h0v-.03h-3.16l9.51-19.35,5.62-11.38,15.94,30.85v7.69l4.29,.75,.74,.13h.03v-7.98h25.75v12.28h0v.03c1.4-.76,2.95-1.15,4.55-1.15,.07,0,.15,0,.22,.01h.01s.02,0,.03,0v-11.17h4.72L99.52,14.13h-3.49V6.33h-12.83v7.8h-23.96l-17.61,35.81-.35,.73-.07,.13v1.26h0Zm45.84-28.4V10.18h5.13v13.48h-5.13Z"/><polygon class="cls-2" points="66.72 49.49 66.72 39.28 58.86 39.28 58.86 49.4 58.86 49.46 58.86 49.46 58.86 49.49 66.72 49.49"/><path class="cls-2" d="M117.18,67.75c-.96-.94-2.21-1.48-3.49-1.54-.09-.01-.17-.01-.26-.01-1.06,0-2.14,.32-3.07,.97l-1.48,1.07-11.77,8.54-5.07,3.68c-.8,.55-1.69,.94-2.6,1.13h-2.93c-.13-.03-.28-.06-.41-.1l-15.5-4.34c-.28-.07-.55-.2-.78-.36-.65-.44-1.12-1.13-1.24-1.93l-.16-1.09c-.23-1.71,1.09-3.2,2.77-3.2h.26l6.63,.62,2.64,.25c.18,.01,.35,.03,.52,.03,.67,0,1.31-.12,1.89-.33,2.31-.84,3.89-3.18,3.6-5.81-.1-.97-.84-1.77-1.82-1.93l-1.79-.3-5.06-.89-12.5-2.18c-.74-.13-1.5-.19-2.24-.19-3.18,0-6.28,1.16-8.69,3.31l-4.46,3.98-4.81,4.29-12.02,10.72c-1.38,1.22-1.58,3.3-.48,4.77l8.35,11.22c.7,.94,1.76,1.42,2.85,1.42,.8,0,1.6-.26,2.25-.81l8.11-6.7c1.42-1.16,3.18-1.79,4.97-1.79,.65,0,1.32,.09,1.96,.26l23.44,6.09c.58,.16,1.18,.23,1.77,.23,1.5,0,2.98-.48,4.2-1.41l18.12-13.82,4.78-3.65,2.91-2.21c2.59-1.93,2.86-5.71,.58-7.99Z"/></g></g></g></svg>