<?xml version="1.0" encoding="UTF-8"?><svg id="Layer_2" xmlns="http://www.w3.org/2000/svg" viewBox="0 0 98.3 110.18"><defs><style>.cls-1{fill:#bababa;}</style></defs><g id="_イヤー_1"><g><path class="cls-1" d="M97.41,34.38c-11.1-2.04-18.99-4.33-24.08-9.42-5.09-5.09-7.38-12.99-9.42-24.08-.09-.51-.54-.89-1.06-.89s-.97,.37-1.06,.89c-2.04,11.1-4.33,18.99-9.42,24.08-5.09,5.09-12.99,7.38-24.08,9.42-.51,.09-.88,.54-.88,1.06s.37,.97,.88,1.06c11.1,2.04,18.99,4.33,24.08,9.42,5.09,5.09,7.38,12.99,9.42,24.08,.09,.51,.54,.89,1.06,.89s.97-.37,1.06-.89c2.04-11.1,4.33-18.99,9.42-24.08,5.09-5.09,12.99-7.38,24.08-9.42,.51-.09,.89-.54,.89-1.06s-.37-.97-.89-1.06Z"/><path class="cls-1" d="M54.12,81.95c-8.58-1.58-14.68-3.35-18.62-7.28-3.93-3.93-5.7-10.04-7.28-18.62-.07-.4-.42-.68-.82-.68s-.75,.29-.82,.68c-1.58,8.58-3.35,14.68-7.28,18.62-3.93,3.93-10.04,5.7-18.62,7.28-.4,.07-.68,.42-.68,.82s.29,.75,.68,.82c8.58,1.58,14.68,3.35,18.62,7.28,3.93,3.93,5.7,10.04,7.28,18.62,.07,.4,.42,.68,.82,.68s.75-.29,.82-.68c1.58-8.58,3.35-14.68,7.28-18.62,3.93-3.93,10.04-5.7,18.62-7.28,.4-.07,.68-.42,.68-.82s-.29-.75-.68-.82Z"/></g></g></svg>