<?xml version="1.0" encoding="UTF-8"?><svg id="Layer_2" xmlns="http://www.w3.org/2000/svg" viewBox="0 0 96.56 83.49"><defs><style>.cls-1{fill:#bababa;}</style></defs><g id="_イヤー_1"><g><path class="cls-1" d="M13.11,15.66l.08-.04,.06-.07c2.86-3.18,8.3-8.71,12.62-9.99,.8-.24,2-.52,3.2-.52,1.39,0,2.47,.37,3.19,1.11,1.34,1.37,1.7,4.21,1,8.1v.32l.31,.1c1.15,.36,2.49,.78,4.02,1.24l.46,.14,.09-.48c1.45-7.28-.44-11.06-2.28-12.96-1.68-1.72-4.03-2.63-6.81-2.63-1.44,0-2.99,.24-4.61,.72-6.79,2.02-14.42,10.55-18.36,15.46l-.6,.75,1.35-.05c3.18-.13,4.41-.37,6.27-1.22Z"/><path class="cls-1" d="M6.11,16.2C10.05,11.29,17.67,2.76,24.46,.75,26.07,.27,27.62,.03,29.06,.03c2.76,0,5.11,.9,6.78,2.62,1.84,1.89,3.72,5.67,2.27,12.93l-.09,.48-.43-.16c-1.53-.46-2.86-.87-4.02-1.24l-.31-.1,.02-.3c.7-3.86,.34-6.75-1.01-8.12-.73-.74-1.81-1.12-3.21-1.12-1.21,0-2.41,.28-3.21,.52-4.34,1.29-9.78,6.82-12.64,10l-.14,.1c-1.86,.85-3.09,1.09-6.26,1.22l-1.29,.05,.56-.7Z"/><path class="cls-1" d="M92.08,11.76c-1.79-1.18-3.92-1.78-6.33-1.78-3.35,0-7.07,1.19-10.23,3.25-3.77,2.49-6.92,5.66-8.89,7.88l-.54,.61,5.29,.79c.17,.03,.32,.06,.47,.1l.24,.06,.18-.18c2.04-2.05,4.06-3.75,6.02-5.04,2.32-1.53,5.03-2.41,7.42-2.41,1.43,0,2.67,.32,3.58,.92,2.51,1.66,2.43,5.38,1.93,8.22-1.5,8.43-13.93,21.05-19.21,26.07l-.2,.19,.09,.26c.57,1.76,1.14,3.1,1.45,3.76l.48,1.02,.44-.41c7.41-6.86,20.11-19.87,21.91-30.01,1.48-8.28-1.95-11.89-4.12-13.31Z"/><path class="cls-1" d="M73.39,54.45c-.23-.5-.84-1.87-1.45-3.76l-.09-.26,.19-.16c5.28-5.03,17.71-17.65,19.21-26.09,.5-2.84,.57-6.58-1.95-8.25-.92-.61-2.16-.93-3.6-.93-2.4,0-5.11,.88-7.44,2.41-1.96,1.29-3.99,2.98-6.03,5.04l-.18,.18-.22-.07c-.16-.04-.31-.08-.48-.1l-5.29-.79,.56-.56c1.97-2.22,5.11-5.38,8.88-7.87,3.15-2.06,6.87-3.25,10.21-3.25,2.41,0,4.53,.6,6.32,1.78,2.17,1.42,5.58,5.02,4.11,13.28-1.8,10.13-14.5,23.14-21.9,29.99l-.41,.38-.46-.98Z"/><path class="cls-1" d="M70.77,57.96l-.6-1.22c-.05-.11-.55-1.16-1.12-2.76-.72-2.03-1.65-5.12-1.95-8.33-.62-6.73,1.01-11.17,1.52-12.38l2.22-5.23c.19-.46,.16-.96-.08-1.39-.24-.43-.66-.72-1.15-.8l-1.35-.19-4.84-.72c-9.3-1.43-18.14-3.34-26.26-5.69-1.51-.44-2.82-.84-3.97-1.22-1.94-.63-3.69-1.24-5.2-1.83-.09-.04-.16-.06-.17-.06h.02l-.31-.12-.28-.08c-1.25-.38-2.42-.56-3.58-.56-2.97,0-5.19,1.15-7.37,2.29-.67,.36-1.36,.72-2.16,1.09-1.62,.77-2.84,1.13-4.49,1.33-.78,.08-1.68,.14-2.73,.18l-1.35,.06-2.98,.14-1.18,4.17c-.31,1.13-1.81,7.32-1.31,17.77,.7,14.35,7.02,32.15,22.67,39.08,3.07,1.35,6.38,2.04,9.83,2.04,10.73,0,20.39-6.62,24.05-9.46,5.21-4.04,12.07-10.14,12.13-10.19l1.79-1.58c.96-.86,1.22-2.21,.66-3.36l-.45-.93Zm-18.08,10.99c-3.13,2.44-11.35,8.11-20.1,8.11-2.57,0-5-.5-7.22-1.49-9.86-4.37-14.54-13.82-16.74-21.2l31.44,1.23c1.01,.04,1.86-.75,1.9-1.76h0c.04-1.01-.75-1.86-1.76-1.9l-32.53-1.27c-.63-2.89-1.04-5.86-1.17-8.6-.02-.33-.03-.66-.04-1.03l2.29,.07,34,1.15c1.01,.03,1.85-.76,1.89-1.76h0c.04-1.01-.76-1.86-1.77-1.89l-35.51-1.19-.95-.04c.07-5.94,.85-9.65,1.1-10.7,3.78-.18,6.09-.55,9.39-2.11,.91-.43,1.69-.84,2.39-1.21,1.79-.93,2.96-1.55,4.37-1.55,.53,0,1.1,.09,1.7,.27,.1,.04,10.29,4.25,28.19,7.68l-.28,1.17c-.08,.35-.17,.72-.24,1.1-.78,3.62-1.63,9.19-1.26,15.14,.46,7.3,2.11,13.04,3.41,16.57,.14,.39,.29,.76,.42,1.11l.11,.27c.14,.36,.28,.69,.41,1l.02,.06c-1.18,.97-2.37,1.93-3.47,2.78Zm9.67-8.04c-1.17,1-2.72,2.33-4.37,3.73-.04-.11-.32-.78-.32-.78l-.2-.56c-.1-.26-.2-.53-.29-.82-1.19-3.36-2.7-8.77-3.13-15.47-.35-5.67,.48-11.05,1.24-14.56l.3-1.35s.18-.73,.24-.95c2.21,.41,4.45,.78,6.67,1.12-.89,2.26-2.47,7.51-1.79,14.96,.48,5.05,2.14,9.66,3.09,11.97,.2,.46,.36,.81,.46,1.04-.34,.3-1,.89-1.88,1.66Z"/><path class="cls-1" d="M32.6,83.46c-3.44,0-6.75-.68-9.81-2.03C7.15,74.51,.83,56.72,.13,42.38c-.51-10.44,1-16.62,1.3-17.76l1.18-4.17,4.3-.17c1.06-.04,1.95-.1,2.74-.18,1.66-.2,2.88-.57,4.5-1.34,.8-.37,1.49-.73,2.16-1.09,2.16-1.12,4.39-2.28,7.36-2.28,1.16,0,2.33,.18,3.58,.56l.28,.08,.45,.18c1.53,.59,3.28,1.21,5.2,1.83,1.15,.37,2.47,.78,3.97,1.22,8.12,2.35,16.96,4.27,26.26,5.69l4.84,.72,1.35,.19c.48,.07,.89,.36,1.13,.78,.24,.42,.27,.92,.08,1.37l-2.22,5.23c-.51,1.2-2.14,5.66-1.52,12.39,.3,3.21,1.23,6.31,1.95,8.34,.6,1.67,1.1,2.72,1.12,2.76l.6,1.22,.45,.93c.56,1.14,.29,2.48-.65,3.33l-1.79,1.58c-.07,.06-6.94,6.17-12.13,10.19-3.65,2.84-13.31,9.45-24.03,9.45ZM8.61,54.38c2.16,7.25,6.83,16.82,16.76,21.22,2.22,.99,4.65,1.49,7.23,1.49,8.77,0,16.99-5.68,20.12-8.12,1.1-.85,2.29-1.81,3.47-2.78-.16-.44-.29-.75-.42-1.09,0,0-.41-1.06-.53-1.38-1.3-3.53-2.95-9.27-3.41-16.57-.37-5.95,.48-11.51,1.26-15.13,.07-.38,.16-.75,.24-1.1l.28-1.17c-17.87-3.46-28.11-7.68-28.21-7.72-.62-.18-1.19-.27-1.72-.27-1.41,0-2.59,.62-4.38,1.55-.71,.37-1.49,.78-2.4,1.21-3.33,1.57-5.68,1.93-9.38,2.11-.27,1.03-1.06,4.77-1.13,10.73l.98,.07,35.52,1.19c.48,.02,.93,.22,1.26,.57,.33,.35,.5,.81,.48,1.29-.03,.97-.82,1.74-1.8,1.74l-34.06-1.15-2.29-.07c-.02,.4,0,.74,0,1.07,.13,2.74,.53,5.72,1.17,8.61l32.56,1.29c.48,.02,.93,.22,1.25,.58,.33,.35,.5,.81,.48,1.29-.04,.97-.83,1.73-1.8,1.73l-31.55-1.23v.04ZM55.56,31.1l-.3,1.35c-.76,3.52-1.59,8.9-1.24,14.57,.42,6.7,1.93,12.11,3.13,15.48,.1,.29,.2,.56,.29,.82l.2,.56,.32,.79c1.7-1.39,3.25-2.72,4.42-3.72,.88-.77,1.55-1.36,1.88-1.66-.1-.26-.26-.61-.45-1.07-.95-2.3-2.6-6.92-3.09-11.96-.67-7.33,.84-12.51,1.79-14.94-2.26-.38-4.5-.76-6.69-1.16h-.03l-.25,.97Z"/></g></g></svg>