<?xml version="1.0" encoding="UTF-8"?><svg id="Layer_2" xmlns="http://www.w3.org/2000/svg" viewBox="0 0 128.85 104.08"><defs><style>.cls-1{fill:#bababa;}</style></defs><g id="_イヤー_1"><g><g><path class="cls-1" d="M60.35,63.58h0c.56-.75,4.05-5.52,0,0Z"/><path class="cls-1" d="M60.35,63.58c7.59-10.35,13.14-23.31,10.2-36.33-1.78-7.88-6.48-15.43-12.89-20.37-2.19-1.69-4.58-3.03-7.09-4.08-.05-.02-.09-.04-.14-.06-.76-.32-1.54-.59-2.32-.85-.13-.04-.26-.09-.4-.14-.78-.25-1.56-.46-2.36-.65-.14-.03-.27-.07-.41-.1-.86-.2-1.73-.36-2.6-.5-.07-.01-.13-.02-.2-.03C39.91,.13,37.66-.04,35.4,0c-2.65,.05-5.29,.48-7.82,1.22-.13,.04-.25,.08-.37,.12-.67,.21-1.35,.42-2,.67-.37,.14-.73,.3-1.09,.46-.42,.18-.84,.34-1.24,.53-.37,.18-.73,.38-1.09,.57-.4,.21-.8,.41-1.18,.63-.26,.15-.5,.32-.76,.47-.49,.3-.97,.6-1.43,.92-.09,.06-.18,.14-.27,.2-5.94,4.24-10.1,10.46-10.45,17.49-.17,3.52-.5,6.5-.65,10.18-.18,4.17-1.55,7.01-2.12,7.93-1.13,1.79-2.69,2.73-3.23,3.26-2.56,2.48-1.59,6.97-1.02,10.07,.81,4.36,2.09,8.88,4.11,12.84,2.82,5.53,8.02,9.59,14.46,8.55,2.42-.39,5.84-2.83,8.14-1.7h0c.17,.09,.34,.19,.5,.32,.01,0,.02,.02,.03,.03,.32,.26,.61,.62,.86,1.08,1.04,1.94,1.38,4.33,1.86,6.45,.48,2.14,.93,4.3,1.16,6.49,9.25-3.11,18.5-6.21,27.75-9.32,1.29-.43,1.24-.91,2.5-1.31h.02l.03-.02c-1.53-3.94-4.6-10.63-1.76-14.56-.09,.13-.11,.15,0-.01ZM13.53,48.28c4.62,1.46,9.41,2.44,14.17,3.21,5.74-3.44,11.73-6.54,17.23-10.36,.18-.12,.4,.05,.34,.25-.32,1.19-.55,2.27-.7,3.25,0,.07-.05,.12-.1,.16-5.29,3.45-10.9,6.47-16.35,9.66-.58,3.5-.48,7.06,.25,10.53,.07,.37,.12,.74,.21,1.11h0v.02c4.39-2.11,8.63-4.57,12.74-7.17,1.49-.94,2.97-1.88,4.45-2.82,.65-.41,1.77-1.43,2.49-1.4,.7,.02,1.47,.59,2.24,.92,.29,.12,.32,.52,.06,.69-1.66,1.11-3.64,2.36-5.97,3.84-4.95,3.1-9.95,6.1-15.21,8.66-1.44,.7-2.92,1.3-4.37,1.98-1.76,.81-3.38,1.9-5.29,2.4-2.68,.69-5.59,.25-7.89-1.3-3.94-2.65-5.68-7.77-6.94-11.73-.82-2.59-1.43-5.23-1.81-7.92-.4-2.81-.75-6.53,3.16-6.19,1.64,.14,3.2,.86,4.74,1.42,.57,.21,1.16,.38,1.75,.57,.27,.09,.54,.18,.81,.26Z"/></g><g><path class="cls-1" d="M117.85,78.87h0c.56-.75,4.05-5.52,0,0Z"/><path class="cls-1" d="M117.85,78.87c7.59-10.35,13.14-23.31,10.2-36.33-1.78-7.88-6.48-15.43-12.89-20.37-2.19-1.69-4.58-3.03-7.09-4.08-.05-.02-.09-.04-.14-.06-.76-.32-1.54-.59-2.32-.85-.13-.04-.26-.09-.4-.14-.78-.25-1.56-.46-2.36-.65-.14-.03-.27-.07-.41-.1-.86-.2-1.73-.36-2.6-.5-.07-.01-.13-.02-.2-.03-2.22-.34-4.47-.5-6.73-.46-2.65,.05-5.29,.48-7.82,1.22-.13,.04-.25,.08-.37,.12-.67,.21-1.35,.42-2,.67-.37,.14-.73,.3-1.09,.46-.42,.18-.84,.34-1.24,.53-.37,.18-.73,.38-1.09,.57-.4,.21-.8,.41-1.18,.63-.26,.15-.5,.32-.76,.47-.49,.3-.97,.6-1.43,.92-.09,.06-.18,.14-.27,.2-5.94,4.24-10.1,10.46-10.45,17.49-.17,3.52-.5,6.5-.65,10.18-.18,4.17-1.55,7.01-2.12,7.93-1.13,1.79-2.69,2.73-3.23,3.26-2.56,2.48-1.59,6.97-1.02,10.07,.81,4.36,2.09,8.88,4.11,12.84,2.82,5.53,8.02,9.59,14.46,8.55,2.42-.39,5.84-2.83,8.14-1.7h0c.17,.09,.34,.19,.5,.32,.01,0,.02,.02,.03,.03,.32,.26,.61,.62,.86,1.08,1.04,1.94,1.38,4.33,1.86,6.45,.48,2.14,.93,4.3,1.16,6.49,9.25-3.11,18.5-6.21,27.75-9.32,1.29-.43,1.24-.91,2.5-1.31h.02l.03-.02c-1.53-3.94-4.6-10.63-1.76-14.56-.09,.13-.11,.15,0-.01Zm-46.82-15.3c4.62,1.46,9.41,2.44,14.17,3.21,5.74-3.44,11.73-6.54,17.23-10.36,.18-.12,.4,.05,.34,.25-.32,1.19-.55,2.27-.7,3.25,0,.07-.05,.12-.1,.16-5.29,3.45-10.9,6.47-16.35,9.66-.58,3.5-.48,7.06,.25,10.53,.07,.37,.12,.74,.21,1.11h0v.02c4.39-2.11,8.63-4.57,12.74-7.17,1.49-.94,2.97-1.88,4.45-2.82,.65-.41,1.77-1.43,2.49-1.4,.7,.02,1.47,.59,2.24,.92,.29,.12,.32,.52,.06,.69-1.66,1.11-3.64,2.36-5.97,3.84-4.95,3.1-9.95,6.1-15.21,8.66-1.44,.7-2.92,1.3-4.37,1.98-1.76,.81-3.38,1.9-5.29,2.4-2.68,.69-5.59,.25-7.89-1.3-3.94-2.65-5.68-7.77-6.94-11.73-.82-2.59-1.43-5.23-1.81-7.92-.4-2.81-.75-6.53,3.16-6.19,1.64,.14,3.2,.86,4.74,1.42,.57,.21,1.16,.38,1.75,.57,.27,.09,.54,.18,.81,.26Z"/></g></g></g></svg>