<?xml version="1.0" encoding="UTF-8"?><svg id="Layer_2" xmlns="http://www.w3.org/2000/svg" viewBox="0 0 86.78 77.61"><defs><style>.cls-1{fill:#bababa;}</style></defs><g id="_イヤー_1"><g><path class="cls-1" d="M76.12,58.89c-.14-1.21,.32-2.34,1.04-3.32,4.12-5.63,14.89-21.66,6.5-38.49-2.13-4.26-4.73-7.54-7.6-10.03-.11-.09-.22-.19-.33-.28-.46-.39-.93-.76-1.4-1.11-.18-.13-.36-.26-.54-.39-.38-.26-.76-.52-1.14-.76-.26-.16-.52-.32-.79-.48-.32-.19-.64-.36-.96-.54-.22-.12-.43-.23-.65-.34-.45-.22-.89-.43-1.35-.62-.2-.09-.39-.17-.59-.25-.49-.2-.99-.39-1.49-.56-.07-.02-.13-.04-.2-.06-.56-.19-1.13-.36-1.69-.52h-.02C59.9-.22,54.85-.22,50.55,.41c-10.03,1.48-21.21,9.6-22.4,19.47-.42,3.45-.28,6.04-.11,7.87,.27,3-.87,3.86-2.18,6.87-1.09,2.52-1.59,3.93-2.78,6.95-1.05,2.62,2.21,3.18,4.36,3.94,.91,.33,1.93,.48,2.47,.68,.34,.13,.45,.36,.3,1.2-.09,.51-.3,.99-.62,1.4-.27,.33-.41,.62-.26,1.1,.34,1.14,4.72,.55,5.58,2.63,.39,.93-6.67,.37-5.16,2.72,.22,.34,.89,1.91,.56,3.52-.25,1.23-.8,3.28,1.88,5.32,1.26,.96,3.88,.73,5.75,.77,3.74,.07,6.91-.1,8.51-.02,.22,.01,.38,.04,.47,.06,1.04,.29,1.76,1.54,2.49,4.59,.78,3.25,1.34,5.78,1.6,8.13l26.28-8.84,1.39-.46h.03c-1.62-4.15-2.35-7.52-2.57-9.42Z"/><path class="cls-1" d="M24.15,53.13c0-.64-.81-1.31-1.58-1.31s-1.2,.6-1.2,1.31,.43,1.31,1.2,1.31,1.58-.66,1.58-1.31Z"/><path class="cls-1" d="M17.03,53.13c0-.64-.81-1.31-1.58-1.31s-1.2,.6-1.2,1.31,.43,1.31,1.2,1.31,1.58-.66,1.58-1.31Z"/><path class="cls-1" d="M9.9,53.13c0-.64-.81-1.31-1.58-1.31s-1.2,.6-1.2,1.31,.43,1.31,1.2,1.31,1.58-.66,1.58-1.31Z"/><path class="cls-1" d="M1.2,51.82c-.77,0-1.2,.6-1.2,1.31s.43,1.31,1.2,1.31,1.58-.66,1.58-1.31-.81-1.31-1.58-1.31Z"/><path class="cls-1" d="M24.23,57.39s-.01-.01-.02-.02c-.43-.37-1.23-.48-1.8-.16-.67,.37-.76,1.1-.41,1.73,.35,.64,1.01,.94,1.68,.57,.67-.37,1.07-1.34,.75-1.91-.04-.08-.13-.14-.2-.2Z"/><path class="cls-1" d="M18,60.84l-.02-.02c-.43-.37-1.23-.47-1.8-.16-.67,.37-.76,1.1-.41,1.73,.35,.63,1.01,.94,1.68,.57s1.07-1.34,.75-1.91c-.04-.08-.13-.14-.2-.2Z"/><path class="cls-1" d="M11.77,64.28l-.02-.02c-.43-.37-1.23-.47-1.8-.16-.67,.37-.76,1.1-.41,1.73,.35,.64,1.01,.94,1.68,.57,.67-.37,1.07-1.34,.75-1.91-.04-.08-.13-.14-.2-.2Z"/><path class="cls-1" d="M5.53,67.73s-.01-.01-.02-.02c-.43-.37-1.23-.47-1.8-.16-.67,.37-.76,1.1-.41,1.73,.35,.64,1.01,.94,1.68,.57,.67-.37,1.07-1.34,.75-1.91-.05-.08-.13-.14-.2-.2Z"/><path class="cls-1" d="M23.69,46.76c-.67-.37-1.33-.07-1.68,.57-.35,.63-.26,1.35,.41,1.73,.57,.31,1.36,.21,1.8-.16,0,0,.01-.01,.02-.02,.07-.06,.16-.12,.2-.2,.32-.57-.08-1.54-.75-1.91Z"/><path class="cls-1" d="M17.45,43.31c-.67-.37-1.33-.07-1.68,.57-.35,.63-.26,1.35,.41,1.73,.57,.31,1.36,.21,1.8-.16l.02-.02c.07-.06,.16-.12,.2-.2,.32-.57-.08-1.54-.75-1.91Z"/><path class="cls-1" d="M11.22,39.86c-.67-.37-1.33-.07-1.68,.57-.35,.63-.26,1.35,.41,1.73,.57,.31,1.36,.21,1.8-.16,0,0,.01-.01,.02-.02,.07-.06,.16-.12,.2-.2,.32-.57-.08-1.54-.75-1.91Z"/><path class="cls-1" d="M4.98,36.42c-.67-.37-1.33-.07-1.68,.57-.35,.63-.26,1.35,.41,1.73,.57,.31,1.36,.21,1.8-.16,0,0,.01-.01,.02-.02,.07-.06,.16-.12,.2-.2,.32-.57-.08-1.54-.75-1.91Z"/></g></g></svg>