<?xml version="1.0" encoding="UTF-8"?><svg id="Layer_2" xmlns="http://www.w3.org/2000/svg" viewBox="0 0 105.01 83.65"><defs><style>.cls-1{fill:#bababa;}</style></defs><g id="_イヤー_1"><path class="cls-1" d="M102.43,47.8c1.29-.62,2.19-1.95,2.19-3.48v-5c0-1.53-.9-2.85-2.19-3.48L105.01,1.87c.08-1-.6-1.87-1.46-1.87h-16.96c-.86,0-1.54,.86-1.46,1.87l.14,1.85H19.74l.14-1.85c.08-1-.6-1.87-1.46-1.87H1.47C.61,0-.07,.86,0,1.87L2.58,35.85c-1.29,.62-2.19,1.95-2.19,3.48v5c0,1.53,.9,2.85,2.19,3.48L0,81.78c-.08,1,.6,1.87,1.46,1.87H18.42c.86,0,1.54-.86,1.46-1.87l-.14-1.85H85.27l-.14,1.85c-.08,1,.6,1.87,1.46,1.87h16.96c.86,0,1.54-.86,1.46-1.87l-2.57-33.98Zm-1.67-8.47v5h-11.39v-5h11.39Zm-85.12,0v5H4.25v-5H15.64Zm34.93-1.51h-3.04c-.69,0-1.24,.56-1.24,1.24v5.53c0,.69,.56,1.24,1.24,1.24h3.04v26.17H19.14l-1.83-24.2c1.29-.62,2.19-1.95,2.19-3.48v-5c0-1.53-.9-2.85-2.19-3.48l1.83-24.2h31.43v26.17Zm35.29,34.18h-31.43V11.65h31.43l1.83,24.2c-1.29,.62-2.19,1.95-2.19,3.48v5c0,1.53,.9,2.85,2.19,3.48l-1.83,24.2Z"/></g></svg>