<?xml version="1.0" encoding="UTF-8"?><svg id="Layer_2" xmlns="http://www.w3.org/2000/svg" viewBox="0 0 124.47 88.26"><defs><style>.cls-1{letter-spacing:-.01em;}.cls-2,.cls-3{fill:#bababa;}.cls-3{font-family:Roboto-Bold, Roboto;font-size:21.45px;}</style></defs><g id="_イヤー_1"><g><g><circle class="cls-2" cx="62.24" cy="7.55" r="7.55" transform="translate(45.29 67.91) rotate(-81.24)"/><circle class="cls-2" cx="101.26" cy="20.86" r="7.55" transform="translate(64.29 117.41) rotate(-80.68)"/><circle class="cls-2" cx="23.21" cy="20.86" r="7.55" transform="translate(-3.07 4.03) rotate(-9.32)"/><circle class="cls-2" cx="112.87" cy="50.94" r="7.55"/><circle class="cls-2" cx="11.61" cy="50.94" r="7.55"/><path class="cls-2" d="M73.84,29.06v-3.99c0-4.31-3.49-7.8-7.8-7.8h-7.6c-4.31,0-7.8,3.49-7.8,7.8v3.99h23.21Z"/><path class="cls-2" d="M21.08,63.1c-1.42-1.51-3.44-2.45-5.67-2.45H7.8c-4.31,0-7.8,3.49-7.8,7.8v13.84H14.43l6.65-19.19Z"/><path class="cls-2" d="M116.67,60.65h-7.6c-2.24,0-4.25,.94-5.67,2.45l6.65,19.19h14.43v-13.84c0-4.31-3.49-7.8-7.8-7.8Z"/><path class="cls-2" d="M88.96,32.75H35.51l-19.24,55.51H108.2l-19.24-55.51Zm-39.1,16.49l2.39-10.42h19.97l2.39,10.42h-24.75Z"/><path class="cls-2" d="M101.69,52.2c-.05-.41-.07-.83-.07-1.26,0-6.2,5.05-11.25,11.25-11.25h0v-1.33c0-4.31-3.49-7.8-7.8-7.8h-7.6c-1.8,0-3.46,.61-4.78,1.64l6.93,20h2.07Z"/><path class="cls-2" d="M11.61,39.69c6.2,0,11.25,5.05,11.25,11.25,0,.43-.03,.84-.07,1.26h2.07l6.93-20c-1.32-1.02-2.98-1.64-4.78-1.64h-7.6c-4.31,0-7.8,3.49-7.8,7.8v1.33h0Z"/></g><text class="cls-3" transform="translate(34.43 79.92)"><tspan class="cls-1" x="0" y="0">Z</tspan><tspan x="12.78" y="0">oom</tspan></text></g></g></svg>