<?xml version="1.0" encoding="UTF-8"?><svg id="Layer_2" xmlns="http://www.w3.org/2000/svg" viewBox="0 0 93.49 93.49"><defs><style>.cls-1{fill:#bababa;}</style></defs><g id="_イヤー_1"><g><rect class="cls-1" x="57.1" y="20.66" width="24.29" height="7.17" rx="2.26" ry="2.26" transform="translate(3.14 56.07) rotate(-45)"/><path class="cls-1" d="M90.91,2.58c-3.63-3.63-9.84-3.39-14.01,.45-.05,.04-47.26,47.24-47.26,47.24-.14,.14-.25,.3-.33,.47l-3.08,10.18L1.31,85.84c-1.75,1.75-1.75,4.59,0,6.34,1.75,1.75,4.59,1.75,6.34,0l24.92-24.92,10.18-3.08c.17-.08,.33-.2,.47-.33,0,0,47.13-47.14,47.24-47.26,3.85-4.18,4.08-10.39,.45-14.01Zm-2,2c2.22,2.22,2.32,5.88,.46,8.81-.35,.55-.77,1.08-1.26,1.57L41.36,61.72l-10.44,3.2-15.61,15.61-2.35-2.35,15.62-15.62,3.2-10.44L78.53,5.37c.49-.49,1.02-.91,1.57-1.26,2.94-1.86,6.59-1.76,8.81,.46Z"/></g></g></svg>