<?xml version="1.0" encoding="UTF-8"?><svg id="Layer_2" xmlns="http://www.w3.org/2000/svg" viewBox="0 0 113.8 86.76"><defs><style>.cls-1{fill:#bababa;}</style></defs><g id="_イヤー_1"><g><path class="cls-1" d="M72.85,11.23c-.36,0-.72-.09-1.05-.29-.98-.58-1.3-1.84-.72-2.82l2.75-4.63c.37-.62,1.04-1,1.77-1h16C91.71,1.1,92.88,0,94.29,0h10.3c1.49,0,2.71,1.22,2.71,2.71v6.5h-4.71v6.87h2c1.49,0,2.71,1.22,2.71,2.71v6.5h-15.72v-6.5c0-1.49,1.22-2.71,2.71-2.71h2v-6.87h-4.71v-2.61h-14.81l-2.16,3.62c-.38,.65-1.07,1-1.77,1Z"/><path class="cls-1" d="M86.3,35.21c-.53,.78-.81,1.7-.81,2.65v37.27c0,3.05,2.48,5.53,5.53,5.53h17.24c3.05,0,5.53-2.48,5.53-5.53V37.86c0-.94-.28-1.86-.81-2.65l-4.51-6.7h-17.67l-4.51,6.7Zm5.4,13.56h15.9v9.66h-15.9v-9.66Z"/><path class="cls-1" d="M71.64,14.44c.06,.09,.11,.18,.15,.28,.04,.1,.07,.2,.09,.3,.02,.1,.03,.21,.03,.31,0,.1,0,.21-.03,.31-.02,.1-.05,.2-.09,.3-.04,.1-.09,.19-.15,.28-.06,.09-.13,.17-.2,.24-.07,.07-.15,.14-.24,.2-.09,.06-.18,.11-.28,.15-.1,.04-.2,.07-.3,.09-.1,.02-.21,.03-.31,.03s-.21-.01-.31-.03c-.1-.02-.2-.05-.3-.09-.1-.04-.19-.09-.28-.15-.09-.06-.17-.13-.24-.2-.07-.07-.14-.15-.2-.24-.06-.09-.11-.18-.15-.28-.04-.1-.07-.2-.09-.3-.02-.1-.03-.21-.03-.31s.01-.21,.03-.31c.02-.1,.05-.2,.09-.3,.04-.1,.09-.19,.15-.28,.06-.09,.13-.17,.2-.24,.3-.3,.71-.47,1.13-.47s.83,.17,1.13,.47c.07,.07,.14,.15,.2,.24Z"/><path class="cls-1" d="M67.45,19.74c.74,.48,.95,1.47,.47,2.2-.3,.47-.82,.73-1.34,.73-.3,0-.6-.08-.86-.26-.74-.48-.95-1.46-.47-2.2,.48-.74,1.47-.95,2.2-.47Z"/><path class="cls-1" d="M61.98,28.18c-.74-.48-.95-1.46-.47-2.2,.48-.74,1.47-.95,2.2-.47,.74,.48,.95,1.47,.47,2.2-.3,.47-.82,.73-1.34,.73-.3,0-.6-.08-.86-.26Z"/><path class="cls-1" d="M60.58,33.21c-.04,.1-.09,.19-.15,.28-.06,.09-.12,.17-.2,.24-.07,.07-.15,.14-.24,.2-.09,.06-.18,.11-.28,.15-.1,.04-.2,.07-.3,.09-.1,.02-.21,.03-.31,.03s-.21-.01-.31-.03c-.1-.02-.2-.05-.3-.09-.1-.04-.19-.09-.27-.15-.09-.06-.17-.12-.24-.2-.07-.07-.14-.15-.2-.24-.06-.09-.11-.18-.15-.28-.04-.1-.07-.2-.09-.3-.02-.1-.03-.21-.03-.31s.01-.21,.03-.31c.02-.1,.05-.2,.09-.3,.04-.1,.09-.19,.15-.28,.06-.09,.13-.17,.2-.24,.07-.07,.15-.14,.24-.2,.09-.06,.18-.11,.27-.15,.1-.04,.2-.07,.3-.09,.21-.04,.42-.04,.62,0,.1,.02,.2,.05,.3,.09,.1,.04,.19,.09,.28,.15,.09,.06,.17,.13,.24,.2,.07,.07,.14,.16,.2,.24,.06,.09,.11,.18,.15,.28,.04,.1,.07,.2,.09,.3,.02,.1,.03,.21,.03,.31,0,.1,0,.21-.03,.31-.02,.1-.05,.2-.09,.3Z"/><path class="cls-1" d="M64.03,16.29c-.1,0-.21,0-.31-.03-.1-.02-.2-.05-.3-.09-.1-.04-.19-.09-.28-.15-.09-.06-.17-.13-.24-.2-.07-.07-.14-.15-.2-.24-.06-.09-.11-.18-.15-.28-.04-.1-.07-.2-.09-.3-.02-.1-.03-.21-.03-.31,0-.1,.01-.21,.03-.31,.02-.1,.05-.2,.09-.3,.04-.1,.09-.19,.15-.28,.06-.09,.13-.17,.2-.24,.07-.07,.15-.14,.24-.2,.09-.06,.18-.11,.28-.15,.1-.04,.2-.07,.3-.09,.2-.04,.42-.04,.62,0,.1,.02,.2,.05,.3,.09,.1,.04,.19,.09,.28,.15,.09,.06,.17,.13,.24,.2,.07,.07,.14,.15,.2,.24,.06,.09,.11,.18,.15,.28,.04,.1,.07,.2,.09,.3,.02,.1,.03,.21,.03,.31,0,.1,0,.21-.03,.31-.02,.1-.05,.2-.09,.3-.04,.1-.09,.19-.15,.28-.06,.09-.12,.17-.2,.24s-.15,.14-.24,.2c-.09,.06-.18,.11-.28,.15-.1,.04-.2,.07-.3,.09-.1,.02-.21,.03-.31,.03Z"/><path class="cls-1" d="M58.33,20.74c-.28,.2-.61,.3-.93,.3-.5,0-.98-.23-1.3-.66-.51-.72-.35-1.71,.37-2.22,.71-.51,1.71-.35,2.22,.37,.51,.71,.35,1.71-.37,2.22Z"/><path class="cls-1" d="M52.25,24.8c-.04,.1-.09,.19-.15,.28-.06,.09-.13,.17-.2,.24-.3,.3-.71,.47-1.13,.47-.1,0-.21,0-.31-.03-.1-.02-.2-.05-.3-.09-.1-.04-.19-.09-.28-.15-.09-.06-.17-.13-.24-.2-.07-.07-.14-.15-.2-.24-.06-.09-.11-.18-.15-.28-.04-.1-.07-.2-.09-.3-.02-.1-.03-.21-.03-.31,0-.1,0-.21,.03-.31,.02-.1,.05-.2,.09-.3,.04-.1,.09-.19,.15-.28,.06-.09,.13-.17,.2-.24,.07-.07,.15-.14,.24-.2,.09-.06,.18-.11,.28-.15,.1-.04,.2-.07,.3-.09,.21-.04,.42-.04,.62,0,.1,.02,.2,.05,.3,.09,.1,.04,.19,.09,.28,.15,.09,.06,.17,.13,.24,.2,.07,.07,.14,.15,.2,.24,.06,.09,.11,.18,.15,.28,.04,.1,.07,.2,.09,.3,.02,.1,.03,.21,.03,.31,0,.1,0,.21-.03,.31-.02,.1-.05,.2-.09,.3Z"/><path class="cls-1" d="M73.26,21.99c-.1-.02-.2-.05-.3-.09-.1-.04-.19-.09-.28-.15-.09-.06-.17-.13-.24-.2s-.14-.15-.2-.24c-.06-.09-.11-.18-.15-.28-.04-.1-.07-.2-.09-.3-.02-.1-.03-.21-.03-.31,0-.1,0-.21,.03-.31,.02-.1,.05-.2,.09-.3,.04-.1,.09-.19,.15-.27,.06-.09,.13-.17,.2-.24s.15-.14,.24-.2c.09-.06,.18-.11,.28-.15,.1-.04,.2-.07,.3-.09,.2-.04,.42-.04,.62,0,.1,.02,.2,.05,.3,.09,.1,.04,.19,.09,.28,.15,.09,.06,.17,.13,.24,.2s.14,.15,.2,.24c.06,.09,.11,.18,.15,.27,.04,.1,.07,.2,.09,.3,.02,.1,.03,.21,.03,.31s-.01,.21-.03,.31c-.02,.1-.05,.2-.09,.3-.04,.1-.09,.19-.15,.28-.06,.09-.13,.17-.2,.24s-.15,.14-.24,.2c-.09,.06-.18,.11-.28,.15-.1,.04-.2,.07-.3,.09-.1,.02-.21,.03-.31,.03s-.21,0-.31-.03Z"/><path class="cls-1" d="M71.53,27.42c-.84-.25-1.33-1.13-1.08-1.97,.25-.85,1.13-1.33,1.97-1.08,.84,.25,1.33,1.13,1.08,1.98-.2,.7-.84,1.15-1.53,1.15-.15,0-.3-.02-.45-.06Z"/><path class="cls-1" d="M69.94,32.89c-.84-.25-1.33-1.13-1.08-1.98,.25-.84,1.13-1.33,1.97-1.08,.85,.25,1.33,1.13,1.08,1.97-.2,.7-.84,1.15-1.53,1.15-.15,0-.3-.02-.45-.06Z"/><path class="cls-1" d="M67.32,36.21c.04-.1,.09-.19,.15-.28,.06-.09,.13-.17,.2-.24s.15-.14,.24-.2c.09-.06,.18-.11,.28-.15,.1-.04,.2-.07,.3-.09,.21-.04,.42-.04,.62,0,.1,.02,.2,.05,.3,.09,.1,.04,.19,.09,.28,.15,.09,.06,.17,.13,.24,.2,.07,.07,.14,.15,.2,.24,.06,.09,.11,.18,.15,.28,.04,.1,.07,.2,.09,.3,.02,.1,.03,.21,.03,.31,0,.1-.01,.21-.03,.31-.02,.1-.05,.2-.09,.3-.04,.1-.09,.19-.15,.28-.06,.09-.13,.17-.2,.24-.07,.07-.15,.14-.24,.2-.09,.06-.18,.11-.28,.15-.1,.04-.2,.07-.3,.09-.1,.02-.21,.03-.31,.03s-.21-.01-.31-.03c-.1-.02-.2-.05-.3-.09-.1-.04-.19-.09-.28-.15-.09-.06-.17-.13-.24-.2-.07-.07-.14-.15-.2-.24-.06-.09-.11-.18-.15-.28-.04-.1-.07-.2-.09-.3-.02-.1-.03-.21-.03-.31,0-.1,.01-.21,.03-.31,.02-.1,.05-.2,.09-.3Z"/><path class="cls-1" d="M5.56,45.23L21.77,27.47c1.01-1.18,2.44-1.85,3.95-1.85,1.13,0,2.17,.37,3.01,1.08,1,.84,1.59,2.05,1.65,3.41,.06,1.28-.37,2.53-1.19,3.55l-2.72,3.84,16.32-5.8c.59-.22,1.21-.32,1.83-.32,2.08,0,3.94,1.25,4.62,3.11,.21,.57,.3,1.19,.27,1.8,.1,0,.19,0,.29,0,.69,0,1.35,.13,1.98,.39,1.25,.52,2.19,1.49,2.63,2.72,.45,1.23,.35,2.57-.27,3.78-.34,.66-.82,1.23-1.4,1.68-.96,0-1.9,.18-2.81,.51l-8.33,2.96c.1-.58,.13-1.16,.11-1.74-.01-.3-.04-.6-.09-.89l8.53-3.1c.48-.17,.86-.5,1.08-.93,.2-.38,.23-.78,.1-1.14-.13-.36-.42-.65-.81-.81-.23-.09-.47-.14-.72-.14-.24,0-.47,.04-.7,.13l-8.53,3.1c-.43-.7-.97-1.34-1.62-1.88-.3-.26-.63-.48-.97-.69l7-2.55c.94-.34,1.47-1.27,1.18-2.07-.21-.58-.81-.95-1.52-.95-.24,0-.49,.04-.72,.13l-21.23,7.54c-.18,.06-.36,.09-.55,.09-.51,0-1-.24-1.31-.65-.43-.57-.45-1.35-.03-1.94l5.77-8.12s.05-.07,.08-.11c.33-.39,.49-.87,.47-1.34-.02-.43-.19-.79-.48-1.04-.25-.21-.56-.32-.9-.32-.53,0-1.08,.27-1.46,.71-.01,.02-.03,.03-.04,.05L7.71,47.75c-.18,.2-.4,.35-.65,.44l-6,2.18-1.06-3.11,5.56-2.02Z"/><path class="cls-1" d="M29.96,44.07c1.01-1.18,2.44-1.85,3.95-1.85,1.13,0,2.17,.37,3.01,1.08,1,.84,1.59,2.05,1.65,3.41,.06,1.28-.37,2.53-1.19,3.55l-2.72,3.84,16.32-5.8c.59-.22,1.21-.32,1.83-.32,2.08,0,3.94,1.25,4.62,3.11,.21,.57,.3,1.19,.27,1.8,.1,0,.19,0,.29,0,.69,0,1.35,.13,1.98,.39,1.25,.52,2.19,1.49,2.63,2.72,.45,1.23,.35,2.57-.27,3.78-.36,.69-.87,1.29-1.49,1.75,.42,.45,.74,.98,.95,1.56,.44,1.21,.35,2.54-.25,3.73-.6,1.18-1.63,2.08-2.9,2.55l-.7,.25c.34,.41,.61,.87,.79,1.37,.45,1.23,.35,2.57-.27,3.78-.6,1.16-1.62,2.04-2.87,2.5l-19.08,6.94c-.15,.06-.32,.09-.48,.1l-14.9,.75-4.77,1.73-1.06-3.11,4.94-1.8c.15-.06,.32-.09,.48-.1l14.9-.75,18.85-6.86c.48-.17,.86-.5,1.08-.93,.2-.38,.23-.78,.1-1.14-.13-.36-.42-.65-.81-.81-.23-.09-.47-.14-.72-.14-.24,0-.47,.04-.7,.13l-13.78,5.01c-.18,.07-.37,.1-.56,.1-.64,0-1.23-.38-1.5-.97-.02-.03-.03-.07-.04-.1v-.02h0c-.15-.42-.13-.87,.06-1.26,.19-.4,.51-.7,.93-.85l19.01-6.92c.94-.34,1.47-1.27,1.18-2.07-.13-.36-.42-.65-.81-.81-.23-.09-.47-.14-.72-.14-.24,0-.47,.04-.7,.13l-15.98,5.81c-.18,.07-.37,.1-.56,.1-.07,0-.13,0-.2-.01-.62-.08-1.13-.48-1.35-1.07v-.02c-.16-.41-.14-.86,.05-1.25,.19-.4,.51-.7,.93-.85l18.97-6.9c.48-.17,.86-.5,1.08-.93,.2-.38,.23-.78,.1-1.14-.13-.36-.42-.65-.81-.81-.23-.09-.47-.14-.72-.14-.24,0-.47,.04-.7,.13l-18.97,6.9c-.18,.07-.37,.1-.56,.1-.69,0-1.31-.43-1.54-1.07v-.03c-.05-.11-.08-.22-.09-.34-.1-.76,.35-1.5,1.07-1.76l15.98-5.81c.94-.34,1.47-1.27,1.18-2.07-.21-.58-.81-.95-1.52-.95-.24,0-.49,.04-.72,.13l-21.23,7.54c-.18,.06-.36,.09-.55,.09-.51,0-1-.24-1.31-.65-.43-.57-.45-1.35-.03-1.94l5.77-8.12s.05-.07,.08-.11c.33-.39,.49-.87,.47-1.34-.02-.42-.19-.79-.48-1.04-.25-.21-.56-.32-.9-.32-.53,0-1.08,.27-1.46,.71-.01,.02-.03,.03-.04,.05l-16.51,18.08c-.18,.2-.4,.35-.65,.44l-6.03,2.19-1.06-3.11,5.59-2.03,16.22-17.76Z"/></g></g></svg>