<?xml version="1.0" encoding="UTF-8"?><svg id="Layer_2" xmlns="http://www.w3.org/2000/svg" viewBox="0 0 153.04 47.76"><defs><style>.cls-1{fill:#bababa;}</style></defs><g id="_イヤー_1"><g><circle class="cls-1" cx="19.17" cy="9.07" r="9.07"/><path class="cls-1" d="M28.54,20.6H9.8C4.39,20.6,0,24.99,0,30.4v15.85c0,.83,.68,1.51,1.51,1.51h3.97c.83,0,1.51-.68,1.51-1.51v-14.35h1.81v15.11c0,.42,.34,.75,.75,.75H28.8c.42,0,.75-.34,.75-.75v-15.11h1.81v14.35c0,.83,.68,1.51,1.51,1.51h3.97c.83,0,1.51-.68,1.51-1.51v-15.85c0-5.41-4.39-9.8-9.8-9.8Z"/><circle class="cls-1" cx="133.87" cy="9.07" r="9.07"/><path class="cls-1" d="M143.24,20.6h-18.73c-5.41,0-9.8,4.39-9.8,9.8v15.85c0,.83,.68,1.51,1.51,1.51h3.97c.83,0,1.51-.68,1.51-1.51v-14.35h1.81v15.11c0,.42,.34,.75,.75,.75h19.25c.42,0,.75-.34,.75-.75v-15.11h1.81v14.35c0,.83,.68,1.51,1.51,1.51h3.97c.83,0,1.51-.68,1.51-1.51v-15.85c0-5.41-4.39-9.8-9.8-9.8Z"/><rect class="cls-1" x="83.32" y="29.29" width="6.58" height="3.95"/><rect class="cls-1" x="74.11" y="29.29" width="6.58" height="3.95"/><rect class="cls-1" x="64.89" y="29.29" width="6.58" height="3.95"/><polygon class="cls-1" points="56.12 25.08 44.38 31.26 56.12 37.45 56.12 33.24 62.26 33.24 62.26 29.29 56.12 29.29 56.12 25.08"/><polygon class="cls-1" points="96.92 29.29 92.54 29.29 92.54 33.24 96.92 33.24 96.92 37.45 108.66 31.26 96.92 25.08 96.92 29.29"/></g></g></svg>